<svg width="120" height="90" viewBox="0 0 120 90" fill="none" xmlns="http://www.w3.org/2000/svg">
<path d="M11.1 82C8.3225 82 5.94479 81.0087 3.96687 79.0259C1.98896 77.0431 1 74.6594 1 71.875V11.125C1 8.34063 1.98896 5.95703 3.96687 3.97422C5.94479 1.99141 8.3225 1 11.1 1H41.4L51.5 11.125H91.9C94.6775 11.125 97.0553 12.1164 99.0332 14.0992C101.011 16.082 102 18.4656 102 21.25V71.875C102 74.6594 101.011 77.0431 99.0332 79.0259C97.0553 81.0087 94.6775 82 91.9 82H11.1Z" stroke="white" stroke-opacity="0.33"/>
<path d="M20.1 86C17.3225 86 14.9448 85.0087 12.9669 83.0259C10.989 81.0431 10 78.6594 10 75.875V15.125C10 12.3406 10.989 9.95703 12.9669 7.97422C14.9448 5.99141 17.3225 5 20.1 5H50.4L60.5 15.125H100.9C103.678 15.125 106.055 16.1164 108.033 18.0992C110.011 20.082 111 22.4656 111 25.25V75.875C111 78.6594 110.011 81.0431 108.033 83.0259C106.055 85.0087 103.678 86 100.9 86H20.1Z" stroke="white" stroke-opacity="0.66"/>
<path d="M29.1 90C26.3225 90 23.9448 89.0087 21.9669 87.0259C19.989 85.0431 19 82.6594 19 79.875V19.125C19 16.3406 19.989 13.957 21.9669 11.9742C23.9448 9.99141 26.3225 9 29.1 9H59.4L69.5 19.125H109.9C112.678 19.125 115.055 20.1164 117.033 22.0992C119.011 24.082 120 26.4656 120 29.25V79.875C120 82.6594 119.011 85.0431 117.033 87.0259C115.055 89.0087 112.678 90 109.9 90H29.1Z" fill="#FEF7FF"/>
<path d="M79.5 38.5L95.5 55.5813L79.5 73.5" stroke="#3C3C3C" stroke-opacity="0.33" stroke-width="9" stroke-linecap="round" stroke-linejoin="round"/>
<path d="M61.5 38.5L77.5 55.5813L61.5 73.5" stroke="#3C3C3C" stroke-opacity="0.66" stroke-width="9" stroke-linecap="round" stroke-linejoin="round"/>
<path d="M43.5 38.5L59.5 55.5813L43.5 73.5" stroke="#3C3C3C" stroke-width="9" stroke-linecap="round" stroke-linejoin="round"/>
</svg>
