<svg width="119" height="89" viewBox="0 0 119 89" fill="none" xmlns="http://www.w3.org/2000/svg">
<path d="M10.1 81C7.3225 81 4.94479 80.0087 2.96688 78.0259C0.988958 76.0431 0 73.6594 0 70.875V10.125C0 7.34063 0.988958 4.95703 2.96688 2.97422C4.94479 0.991406 7.3225 0 10.1 0H40.4L50.5 10.125H90.9C93.6775 10.125 96.0553 11.1164 98.0332 13.0992C100.011 15.082 101 17.4656 101 20.25V70.875C101 73.6594 100.011 76.0431 98.0332 78.0259C96.0553 80.0087 93.6775 81 90.9 81H10.1Z" fill="#FEF7FF" fill-opacity="0.34"/>
<path d="M19.1 85C16.3225 85 13.9448 84.0087 11.9669 82.0259C9.98896 80.0431 9 77.6594 9 74.875V14.125C9 11.3406 9.98896 8.95703 11.9669 6.97422C13.9448 4.99141 16.3225 4 19.1 4H49.4L59.5 14.125H99.9C102.678 14.125 105.055 15.1164 107.033 17.0992C109.011 19.082 110 21.4656 110 24.25V74.875C110 77.6594 109.011 80.0431 107.033 82.0259C105.055 84.0087 102.678 85 99.9 85H19.1Z" fill="#FEF7FF" fill-opacity="0.66"/>
<path d="M28.1 89C25.3225 89 22.9448 88.0087 20.9669 86.0259C18.989 84.0431 18 81.6594 18 78.875V18.125C18 15.3406 18.989 12.957 20.9669 10.9742C22.9448 8.99141 25.3225 8 28.1 8H58.4L68.5 18.125H108.9C111.678 18.125 114.055 19.1164 116.033 21.0992C118.011 23.082 119 25.4656 119 28.25V78.875C119 81.6594 118.011 84.0431 116.033 86.0259C114.055 88.0087 111.678 89 108.9 89H28.1Z" fill="#FEF7FF"/>
<path d="M86 65L68.9187 81L51 65" stroke="#3C3C3C" stroke-width="9" stroke-linecap="round" stroke-linejoin="round"/>
<path d="M86 47L68.9187 63L51 47" stroke="#3C3C3C" stroke-opacity="0.66" stroke-width="9" stroke-linecap="round" stroke-linejoin="round"/>
<path d="M86 29L68.9187 45L51 29" stroke="#3C3C3C" stroke-opacity="0.33" stroke-width="9" stroke-linecap="round" stroke-linejoin="round"/>
</svg>
